<?xml version="1.0" encoding="iso-8859-1"?>
<!-- Generator: Adobe Illustrator 19.0.0, SVG Export Plug-In . SVG Version: 6.00 Build 0)  -->
<svg version="1.1" id="Layer_1" xmlns="http://www.w3.org/2000/svg" xmlns:xlink="http://www.w3.org/1999/xlink" x="0px" y="0px"
	 viewBox="0 0 512 512" style="enable-background:new 0 0 512 512;" xml:space="preserve">
<path style="fill:#25BBCC;" d="M510.192,225.575C495.146,98.534,387.089,0,256,0C114.616,0,0,114.616,0,256
	c0,126.909,92.353,232.23,213.514,252.471L510.192,225.575z"/>
<path style="fill:#2A8DAA;" d="M512,256c0-10.297-0.626-20.447-1.808-30.425L389.961,105.344L122.04,184.048l159.356,159.356
	L161.391,456.348l52.123,52.123C227.335,510.779,241.524,512,256,512C397.385,512,512,397.385,512,256z"/>
<path style="fill:#A0F6FA;" d="M350.609,89.043c-5.266,0-10.355,0.747-15.184,2.114C324.581,57.639,293.13,33.391,256,33.391
	l-22.261,83.478L256,200.348h94.609c30.736,0,55.652-24.917,55.652-55.652S381.344,89.043,350.609,89.043z"/>
<path style="fill:#FFFFFF;" d="M176.575,91.158c-4.828-1.367-9.917-2.115-15.184-2.115c-30.736,0-55.652,24.917-55.652,55.652
	s24.917,55.652,55.652,55.652H256V33.391C218.871,33.391,187.419,57.639,176.575,91.158z"/>
<path style="fill:#88ACB5;" d="M328.348,306.087h-22.261V200.348c0-27.618-22.469-50.087-50.087-50.087l-11.13-11.13L256,128
	c39.893,0,72.348,32.455,72.348,72.348V306.087z"/>
<g>
	<path style="fill:#A7CBCF;" d="M205.913,306.087h-22.261V200.348C183.652,160.455,216.107,128,256,128v22.261
		c-27.618,0-50.087,22.469-50.087,50.087V306.087z"/>
	<polygon style="fill:#A7CBCF;" points="256,278.261 234.976,361.739 256,456.348 350.609,456.348 350.609,278.261 	"/>
</g>
<rect x="161.391" y="278.261" style="fill:#B7D9DD;" width="94.609" height="178.087"/>
<path style="fill:#2F5E88;" d="M278.262,345.043c0-12.295-9.966-22.261-22.261-22.261c-12.295,0-22.261,9.966-22.261,22.261
	c0,8.234,4.483,15.407,11.13,19.258v47.525h22.261v-47.524C273.779,360.452,278.262,353.279,278.262,345.043z"/>
<g>
</g>
<g>
</g>
<g>
</g>
<g>
</g>
<g>
</g>
<g>
</g>
<g>
</g>
<g>
</g>
<g>
</g>
<g>
</g>
<g>
</g>
<g>
</g>
<g>
</g>
<g>
</g>
<g>
</g>
</svg>
